<svg width="500.000000pt" height="500.000000pt" viewBox="0 0 500.000000 500.000000" xmlns="http://www.w3.org/2000/svg">
  <g transform="translate(0.000000,500.000000) scale(0.100000,-0.100000)" fill="#c8e164" stroke="none">
    <path d="M0 2500 l0 -2500 2500 0 2500 0 0 2500 0 2500 -2500 0 -2500 0 0
-2500z m1424 396 l73 -35 53 -53 53 -52 35 -75 36 -75 4 -85 4 -86 -21 -63
c-27 -79 -55 -125 -115 -183 -140 -138 -343 -167 -515 -74 -28 16 -75 54 -105
85 -59 62 -109 150 -104 183 l3 22 92 3 92 3 15 -28 c18 -36 72 -86 113 -107
l32 -16 69 0 70 0 53 28 54 28 33 54 32 54 0 71 0 70 -19 40 c-23 49 -74 99
-123 119 -43 18 -126 21 -181 5 -43 -12 -111 -68 -133 -111 l-15 -29 -92 3
-92 3 -3 22 -3 23 32 61 c57 105 163 192 278 225 l46 13 88 -3 88 -4 73 -36z
m654 -348 l3 -148 159 0 160 0 0 108 0 107 13 25 c7 14 28 33 47 42 l35 18
103 0 103 0 34 -15 c20 -8 38 -21 41 -30 9 -22 38 -18 49 8 6 12 19 23 30 25
l20 3 105 -106 c57 -58 110 -105 117 -105 l12 0 3 108 3 107 103 2 102 1 0
-149 0 -149 105 0 104 0 3 148 3 147 45 0 45 0 3 -27 c2 -16 7 -28 12 -28 5 0
20 11 33 24 l24 24 47 7 c26 4 89 5 142 3 l94 -4 28 -27 27 -27 3 -171 3 -170
-48 3 -48 3 -3 148 -3 147 -24 0 -25 0 0 -151 0 -150 -47 3 -48 3 -3 148 -3
147 -24 0 -25 0 0 -151 0 -150 -47 3 -48 3 -3 28 c-2 15 -8 27 -13 27 -6 0
-21 -12 -34 -27 l-23 -28 -130 -3 -130 -4 -30 16 c-17 9 -33 25 -37 36 -9 28
-32 25 -39 -5 -3 -13 -16 -30 -27 -36 l-22 -11 -111 111 c-61 61 -117 111
-124 111 l-12 0 0 -110 0 -110 -105 0 -105 0 0 75 0 75 -100 0 -99 0 -3 -72
-3 -73 -210 -3 -210 -2 -28 11 c-15 7 -34 21 -42 33 l-15 20 0 169 0 168 43
-3 42 -3 3 -147z m-768 17 l25 -25 0 -39 0 -40 -24 -25 c-13 -14 -36 -28 -52
-31 l-28 -6 -31 16 -31 16 -16 34 -16 34 13 31 c7 18 27 41 44 52 l31 19 30
-6 c17 -3 41 -17 55 -30z" />
    <path d="M2010 2510 l0 -169 19 -11 20 -10 155 0 156 0 0 30 0 30 -150 0 -150
0 0 150 0 150 -25 0 -25 0 0 -170z" />
    <path d="M2460 2673 c-8 -3 -21 -12 -27 -21 l-13 -16 0 -158 0 -158 30 0 30 0
0 75 0 75 120 0 120 0 0 -75 0 -75 30 0 30 0 0 158 0 158 -14 20 -14 19 -139
2 c-76 1 -145 0 -153 -4z m260 -98 l0 -45 -120 0 -120 0 0 45 0 45 120 0 120
0 0 -45z" />
    <path d="M2500 2575 l0 -25 100 0 100 0 0 25 0 25 -100 0 -100 0 0 -25z" />
    <path d="M2837 2673 c-4 -3 -7 -84 -7 -180 l0 -173 30 0 30 0 0 127 0 128 128
-128 127 -127 23 0 22 0 0 180 0 180 -30 0 -30 0 0 -127 0 -128 -128 128
c-117 117 -147 139 -165 120z" />
    <path d="M3250 2516 l0 -165 16 -15 15 -16 143 0 142 0 20 14 19 14 3 166 3
166 -30 0 -31 0 0 -150 0 -150 -125 0 -125 0 0 150 0 150 -25 0 -25 0 0 -164z" />
    <path d="M3697 2673 c-10 -3 -22 -16 -28 -29 -5 -14 -9 -93 -9 -175 l0 -149
30 0 30 0 0 150 0 150 45 0 45 0 0 -150 0 -150 30 0 30 0 0 150 0 150 45 0 45
0 0 -150 0 -150 30 0 30 0 0 164 0 165 -22 15 -22 16 -131 -1 c-71 -1 -138 -3
-148 -6z" />
  </g>
  <g transform="translate(0.000000,500.000000) scale(0.100000,-0.100000)" fill="#7ed957" stroke="none">
    <path d="M1119 2936 c-140 -40 -259 -153 -306 -288 l-14 -40 12 -14 11 -14 99
0 98 0 15 28 c22 43 90 99 133 111 54 15 118 13 161 -5 49 -20 100 -70 123
-119 l19 -40 0 -60 0 -61 -32 -54 -33 -54 -54 -28 -53 -28 -60 0 -59 0 -32 16
c-41 21 -95 71 -113 107 l-15 27 -98 0 -99 0 -11 -14 -12 -14 14 -40 c23 -66
62 -124 119 -179 89 -84 187 -123 308 -123 121 0 231 45 316 129 60 58 88 104
115 183 l21 63 -4 95 -4 95 -35 76 -36 75 -53 52 -53 53 -74 36 -73 36 -98 3
-97 3 -46 -13z" />
    <path d="M1980 2533 l0 -179 15 -20 c8 -12 27 -26 42 -33 l28 -11 220 2 220 3
3 73 3 72 89 0 90 0 0 -75 0 -75 115 0 115 0 0 112 0 113 114 -114 114 -114
27 7 26 7 13 31 14 31 7 -21 c3 -12 20 -29 37 -38 l30 -15 140 3 140 3 23 27
24 28 3 -28 3 -27 58 -3 57 -3 0 151 0 150 15 0 14 0 3 -147 3 -148 58 -3 57
-3 0 151 0 150 15 0 14 0 3 -147 3 -148 58 -3 58 -3 -3 180 -3 181 -27 27 -28
27 -105 4 c-58 3 -126 1 -151 -3 l-47 -7 -23 -23 -23 -23 -3 27 -3 26 -55 0
-55 0 -3 -147 -3 -148 -94 0 -95 0 0 150 0 149 -112 -2 -113 -2 -3 -109 -3
-110 -108 108 -108 108 -29 -4 -29 -3 -10 -22 c-11 -27 -21 -29 -29 -8 -3 9
-21 22 -41 30 l-34 15 -113 0 -113 0 -35 -18 c-19 -9 -40 -28 -47 -42 l-13
-25 0 -107 0 -108 -150 0 -149 0 -3 148 -3 147 -52 3 -53 3 0 -178z m70 -13
l0 -150 150 0 150 0 0 -20 0 -20 -146 0 -145 0 -20 10 -19 11 0 159 0 160 15
0 15 0 0 -150z m706 126 l14 -20 0 -148 0 -148 -20 0 -20 0 0 75 0 75 -130 0
-130 0 0 -75 0 -75 -20 0 -20 0 0 148 0 148 13 16 c6 9 19 18 27 21 8 4 73 5
143 4 l129 -2 14 -19z m246 -113 l138 -138 0 138 0 137 20 0 20 0 0 -170 0
-170 -13 0 c-7 0 -71 59 -142 130 -71 72 -133 130 -137 130 -5 0 -8 -58 -8
-130 l0 -130 -20 0 -20 0 0 163 c0 150 3 177 19 177 3 0 68 -62 143 -137z
m288 -13 l0 -150 135 0 135 0 0 150 0 150 21 0 20 0 -3 -156 -3 -156 -19 -14
-20 -14 -132 0 -133 0 -15 16 -16 15 0 155 0 154 15 0 15 0 0 -150z m698 134
l22 -15 0 -155 0 -154 -20 0 -20 0 0 150 0 150 -55 0 -55 0 0 -150 0 -150 -20
0 -20 0 0 150 0 150 -55 0 -55 0 0 -150 0 -150 -20 0 -20 0 0 139 c0 77 4 151
9 165 6 13 18 26 28 29 10 3 72 5 138 6 l121 1 22 -16z" />
    <path d="M2470 2575 l0 -55 130 0 130 0 0 55 0 55 -130 0 -130 0 0 -55z m220
0 l0 -15 -90 0 -90 0 0 15 0 15 90 0 90 0 0 -15z" />
    <path d="M1188 2595 c-31 -17 -58 -63 -58 -97 0 -35 34 -83 69 -97 l31 -13 33
6 c19 3 45 18 58 32 l24 26 0 49 0 49 -26 26 -26 25 -39 5 -39 4 -27 -15z" />
  </g>
  <g transform="translate(0.000000,500.000000) scale(0.100000,-0.100000)" fill="#9adc5c" stroke="none">
    <path d="M1178 2943 c6 -2 18 -2 25 0 6 3 1 5 -13 5 -14 0 -19 -2 -12 -5z" />
    <path d="M1288 2943 c7 -3 16 -2 19 1 4 3 -2 6 -13 5 l-19 -1 13 -5z" />
    <path d="M1088 2923 c7 -3 16 -2 19 1 4 3 -2 6 -13 5 l-19 -1 13 -5z" />
    <path d="M1385 2920 c27 -12 43 -12 25 0 -8 5 -22 9 -30 9 l-15 0 20 -9z" />
    <path d="M1430 2906 c0 -3 9 -10 20 -16 11 -6 20 -8 20 -6 0 3 -9 10 -20 16
-11 6 -20 8 -20 6z" />
    <path d="M1014 2888 l-7 -11 11 7 c12 7 16 16 8 16 -3 0 -8 -5 -12 -12z" />
    <path d="M1605 2756 c10 -14 19 -26 22 -26 7 0 -17 39 -28 46 -6 3 -3 -5 6
-20z" />
    <path d="M1218 2733 c6 -2 18 -2 25 0 6 3 1 5 -13 5 -14 0 -19 -2 -12 -5z" />
    <path d="M844 2718 l-7 -11 11 7 c7 4 12 9 12 12 0 8 -9 4 -16 -8z" />
    <path d="M1308 2723 c7 -3 16 -2 19 1 4 3 -2 6 -13 5 l-19 -1 13 -5z" />
    <path d="M1125 2710 l-6 -10 15 6 c18 7 21 14 7 14 -6 0 -13 -4 -16 -10z" />
    <path d="M2731 2697 c2 -2 18 -11 34 -21 l30 -17 -24 20 c-13 12 -28 21 -34
21 -6 0 -8 -1 -6 -3z" />
    <path d="M2820 2685 c-7 -9 -11 -17 -9 -20 3 -2 10 5 17 15 14 24 10 26 -8 5z" />
    <path d="M3665 2676 c-13 -13 -26 -21 -29 -18 -3 3 -6 -2 -6 -11 0 -24 17 -21
25 3 4 11 18 27 33 35 15 8 21 14 14 15 -7 0 -24 -11 -37 -24z" />
    <path d="M3990 2696 c0 -2 8 -10 18 -17 l17 -14 -14 18 c-13 16 -21 21 -21 13z" />
    <path d="M2414 2668 l-19 -23 23 19 c21 18 27 26 19 26 -2 0 -12 -10 -23 -22z" />
    <path d="M820 2670 c0 -7 3 -10 7 -7 3 4 3 10 0 14 -4 3 -7 0 -7 -7z" />
    <path d="M2054 2520 c0 -85 2 -120 3 -77 2 42 2 112 0 155 -1 42 -3 7 -3 -78z" />
    <path d="M2728 2663 c7 -3 16 -2 19 1 4 3 -2 6 -13 5 l-19 -1 13 -5z" />
    <path d="M2875 2660 c3 -5 8 -10 11 -10 3 0 2 5 -1 10 -3 6 -8 10 -11 10 -3 0
-2 -4 1 -10z" />
    <path d="M3184 2505 c0 -93 2 -133 3 -88 2 45 2 122 0 170 -1 48 -3 12 -3 -82z" />
    <path d="M3254 2520 c0 -85 2 -120 3 -77 2 42 2 112 0 155 -1 42 -3 7 -3 -78z" />
    <path d="M3554 2520 c0 -85 2 -120 3 -77 2 42 2 112 0 155 -1 42 -3 7 -3 -78z" />
    <path d="M3703 2663 c4 -3 10 -3 14 0 3 4 0 7 -7 7 -7 0 -10 -3 -7 -7z" />
    <path d="M3980 2666 c0 -2 8 -10 18 -17 l17 -14 -14 18 c-13 16 -21 21 -21 13z" />
    <path d="M1049 2643 l-14 -18 18 14 c9 7 17 15 17 17 0 8 -8 3 -21 -13z" />
    <path d="M3670 2630 c0 -7 3 -10 7 -7 3 4 3 10 0 14 -4 3 -7 0 -7 -7z" />
    <path d="M1671 2614 l1 -19 5 13 c3 7 2 16 -1 19 -3 4 -6 -2 -5 -13z" />
    <path d="M2715 2620 c3 -5 8 -10 11 -10 2 0 4 5 4 10 0 6 -5 10 -11 10 -5 0
-7 -4 -4 -10z" />
    <path d="M2802 2468 l-2 -168 -50 0 -50 0 0 75 0 75 -100 0 c-55 0 -100 -3
-100 -7 0 -5 43 -7 95 -5 l95 3 0 -75 0 -76 114 0 115 0 3 115 c2 63 0 115 -4
115 -5 0 -8 -49 -8 -110 l0 -110 -50 0 -50 0 -3 168 -3 167 -2 -167z" />
    <path d="M3710 2619 c0 -5 5 -7 10 -4 6 3 10 8 10 11 0 2 -4 4 -10 4 -5 0 -10
-5 -10 -11z" />
    <path d="M3860 2619 c0 -5 5 -7 10 -4 6 3 10 8 10 11 0 2 -4 4 -10 4 -5 0 -10
-5 -10 -11z" />
    <path d="M4041 2614 l1 -19 5 13 c3 7 2 16 -1 19 -3 4 -6 -2 -5 -13z" />
    <path d="M2391 2515 c-1 -60 -2 -134 -1 -162 l1 -53 -173 -3 -173 -3 227 -2
c125 -1 229 1 231 6 3 4 -19 5 -49 4 l-53 -4 -4 164 -3 163 -3 -110z" />
    <path d="M4010 2476 l0 -145 -22 -4 -23 -4 28 -2 27 -1 0 150 c0 83 -2 150 -5
150 -3 0 -5 -65 -5 -144z" />
    <path d="M1310 2575 c13 -14 26 -25 28 -25 3 0 -5 11 -18 25 -13 14 -26 25
-28 25 -3 0 5 -11 18 -25z" />
    <path d="M2500 2593 c0 -5 43 -7 96 -5 l97 3 -6 -20 c-3 -12 -1 -21 4 -21 5 0
9 11 9 25 l0 25 -100 0 c-55 0 -100 -3 -100 -7z" />
    <path d="M3740 2449 l0 -151 -54 4 c-30 1 -52 0 -49 -4 2 -5 29 -8 59 -8 l54
0 0 151 0 151 20 -5 c11 -3 20 -1 20 4 0 5 -11 9 -25 9 l-25 0 0 -151z" />
    <path d="M3890 2449 l0 -151 -54 4 c-30 1 -52 0 -49 -4 2 -5 29 -8 59 -8 l54
0 0 151 0 151 20 -5 c11 -3 20 -1 20 4 0 5 -11 9 -25 9 l-25 0 0 -151z" />
    <path d="M1159 2573 l-14 -18 18 14 c9 7 17 15 17 17 0 8 -8 3 -21 -13z" />
    <path d="M1461 2574 l1 -19 5 13 c3 7 2 16 -1 19 -3 4 -6 -2 -5 -13z" />
    <path d="M1681 2564 l1 -19 5 13 c3 7 2 16 -1 19 -3 4 -6 -2 -5 -13z" />
    <path d="M1471 2534 l1 -19 5 13 c3 7 2 16 -1 19 -3 4 -6 -2 -5 -13z" />
    <path d="M1132 2500 c0 -14 2 -19 5 -12 2 6 2 18 0 25 -3 6 -5 1 -5 -13z" />
    <path d="M1471 2464 l1 -19 5 13 c3 7 2 16 -1 19 -3 4 -6 -2 -5 -13z" />
    <path d="M2715 2470 c3 -5 8 -10 11 -10 2 0 4 5 4 10 0 6 -5 10 -11 10 -5 0
-7 -4 -4 -10z" />
    <path d="M1309 2423 l-24 -28 28 24 c25 23 32 31 24 31 -2 0 -14 -12 -28 -27z" />
    <path d="M1150 2436 c0 -2 8 -10 18 -17 l17 -14 -14 18 c-13 16 -21 21 -21 13z" />
    <path d="M1681 2424 l1 -19 5 13 c3 7 2 16 -1 19 -3 4 -6 -2 -5 -13z" />
    <path d="M3211 2358 l0 -33 9 20 c12 28 12 45 0 45 -5 0 -10 -15 -9 -32z" />
    <path d="M1030 2376 c0 -2 8 -10 18 -17 l17 -14 -14 18 c-13 16 -21 21 -21 13z" />
    <path d="M1981 2364 l1 -19 5 13 c3 7 2 16 -1 19 -3 4 -6 -2 -5 -13z" />
    <path d="M2010 2370 c0 -7 3 -10 7 -7 3 4 3 10 0 14 -4 3 -7 0 -7 -7z" />
    <path d="M3591 2364 l1 -19 5 13 c3 7 2 16 -1 19 -3 4 -6 -2 -5 -13z" />
    <path d="M811 2354 l1 -19 5 13 c3 7 2 16 -1 19 -3 4 -6 -2 -5 -13z" />
    <path d="M3617 2357 l-5 -14 14 0 c8 0 14 6 14 14 0 7 -4 13 -9 13 -5 0 -11
-6 -14 -13z" />
    <path d="M1990 2336 c0 -2 8 -10 18 -17 l17 -14 -14 18 c-13 16 -21 21 -21 13z" />
    <path d="M2205 2330 l-150 -6 153 -2 152 -2 0 10 c0 6 -1 9 -2 8 -2 -1 -70 -5
-153 -8z" />
    <path d="M2420 2329 c0 -5 11 -9 25 -9 14 0 25 2 25 4 0 2 -11 6 -25 8 -14 3
-25 1 -25 -3z" />
    <path d="M2720 2328 c0 -5 14 -8 30 -8 17 0 30 3 30 8 0 4 -13 7 -30 7 -16 0
-30 -3 -30 -7z" />
    <path d="M2860 2330 l-25 -8 28 -1 c15 -1 27 4 27 9 0 6 -1 10 -2 9 -2 -1 -14
-5 -28 -9z" />
    <path d="M3690 2330 l-25 -8 28 -1 c15 -1 27 4 27 9 0 6 -1 10 -2 9 -2 -1 -14
-5 -28 -9z" />
    <path d="M3840 2330 l-25 -8 28 -1 c15 -1 27 4 27 9 0 6 -1 10 -2 9 -2 -1 -14
-5 -28 -9z" />
    <path d="M1080 2326 c0 -2 8 -10 18 -17 l17 -14 -14 18 c-13 16 -21 21 -21 13z" />
    <path d="M3363 2323 c37 -2 96 -2 130 0 34 2 4 3 -68 3 -71 0 -99 -1 -62 -3z" />
    <path d="M3589 2313 l-14 -18 18 14 c16 13 21 21 13 21 -2 0 -10 -8 -17 -17z" />
    <path d="M830 2314 c0 -6 7 -19 16 -30 l15 -19 -12 25 c-14 31 -19 36 -19 24z" />
    <path d="M1369 2303 l-14 -18 18 14 c9 7 17 15 17 17 0 8 -8 3 -21 -13z" />
    <path d="M3937 2298 c2 -5 29 -8 59 -8 30 0 54 3 54 8 0 4 -27 7 -59 7 -33 0
-57 -3 -54 -7z" />
    <path d="M3148 2293 c6 -2 18 -2 25 0 6 3 1 5 -13 5 -14 0 -19 -2 -12 -5z" />
    <path d="M3363 2293 c37 -2 97 -2 135 0 37 2 6 3 -68 3 -74 0 -105 -1 -67 -3z" />
    <path d="M1153 2273 c4 -3 10 -3 14 0 3 4 0 7 -7 7 -7 0 -10 -3 -7 -7z" />
    <path d="M1308 2273 c7 -3 16 -2 19 1 4 3 -2 6 -13 5 l-19 -1 13 -5z" />
    <path d="M1198 2263 c7 -3 16 -2 19 1 4 3 -2 6 -13 5 l-19 -1 13 -5z" />
    <path d="M1258 2263 c7 -3 16 -2 19 1 4 3 -2 6 -13 5 l-19 -1 13 -5z" />
    <path d="M1614 2258 l-7 -11 11 7 c7 4 12 9 12 12 0 8 -9 4 -16 -8z" />
    <path d="M1509 2143 l-14 -18 18 14 c16 13 21 21 13 21 -2 0 -10 -8 -17 -17z" />
    <path d="M1015 2110 c3 -5 8 -10 11 -10 3 0 2 5 -1 10 -3 6 -8 10 -11 10 -3 0
-2 -4 1 -10z" />
    <path d="M1430 2100 l-15 -10 12 0 c6 0 15 5 18 10 8 12 4 12 -15 0z" />
    <path d="M1088 2073 c7 -3 16 -2 19 1 4 3 -2 6 -13 5 l-19 -1 13 -5z" />
    <path d="M1378 2073 c7 -3 16 -2 19 1 4 3 -2 6 -13 5 l-19 -1 13 -5z" />
    <path d="M1178 2053 c7 -3 16 -2 19 1 4 3 -2 6 -13 5 l-19 -1 13 -5z" />
    <path d="M1288 2053 c7 -3 16 -2 19 1 4 3 -2 6 -13 5 l-19 -1 13 -5z" />
  </g>
  <g transform="translate(0.000000,500.000000) scale(0.100000,-0.100000)" fill="#a9de5f" stroke="none">
    <path d="M1163 2943 c4 -3 10 -3 14 0 3 4 0 7 -7 7 -7 0 -10 -3 -7 -7z" />
    <path d="M1303 2943 c4 -3 10 -3 14 0 3 4 0 7 -7 7 -7 0 -10 -3 -7 -7z" />
    <path d="M1123 2933 c4 -3 10 -3 14 0 3 4 0 7 -7 7 -7 0 -10 -3 -7 -7z" />
    <path d="M1340 2936 c0 -2 9 -6 20 -9 l20 -5 -6 9 c-5 9 -34 13 -34 5z" />
    <path d="M1060 2915 c-14 -8 -20 -14 -14 -15 5 0 19 7 30 15 24 18 16 19 -16
0z" />
    <path d="M1395 2920 c3 -5 8 -10 11 -10 3 0 2 5 -1 10 -3 6 -8 10 -11 10 -3 0
-2 -4 1 -10z" />
    <path d="M980 2869 l-25 -20 20 10 c33 17 51 31 40 31 -5 0 -21 -10 -35 -21z" />
    <path d="M1470 2880 c8 -6 24 -15 35 -21 l20 -10 -25 20 c-14 11 -29 21 -35
21 -5 0 -3 -5 5 -10z" />
    <path d="M1556 2811 c10 -10 21 -17 23 -15 6 6 -20 34 -32 34 -6 0 -2 -8 9
-19z" />
    <path d="M905 2809 c-11 -17 1 -21 15 -4 l12 15 -10 0 c-6 0 -14 -5 -17 -11z" />
    <path d="M874 2768 l-7 -11 11 7 c7 4 12 9 12 12 0 8 -9 4 -16 -8z" />
    <path d="M1610 2750 c0 -7 3 -10 7 -7 3 4 3 10 0 14 -4 3 -7 0 -7 -7z" />
    <path d="M855 2739 c-4 -6 -5 -12 -2 -15 2 -3 7 2 10 11 7 17 1 20 -8 4z" />
    <path d="M1248 2733 c6 -2 18 -2 25 0 6 3 1 5 -13 5 -14 0 -19 -2 -12 -5z" />
    <path d="M1168 2723 c7 -3 16 -2 19 1 4 3 -2 6 -13 5 l-19 -1 13 -5z" />
    <path d="M1335 2718 c26 -17 106 -97 123 -123 7 -11 5 -5 -4 14 -19 40 -66 86
-109 107 -16 8 -21 9 -10 2z" />
    <path d="M1990 2704 c35 -7 98 -9 94 -2 -3 5 -29 7 -57 7 -29 -1 -45 -3 -37
-5z" />
    <path d="M2538 2703 c34 -2 90 -2 125 0 34 2 6 3 -63 3 -69 0 -97 -1 -62 -3z" />
    <path d="M3105 2697 c-8 -22 -10 -217 -2 -217 4 0 7 49 7 109 l0 110 106 0
c58 0 108 2 111 5 3 3 -45 5 -106 5 l-112 0 -4 -12z" />
    <path d="M3527 2703 c-3 -4 19 -6 50 -5 l54 4 -1 -169 c-2 -235 3 -270 10 -68
3 94 3 186 0 205 l-5 35 -52 3 c-28 2 -53 -1 -56 -5z" />
    <path d="M3788 2703 c34 -2 88 -2 120 0 31 2 3 3 -63 3 -66 0 -92 -1 -57 -3z" />
    <path d="M1079 2673 l-24 -28 28 24 c25 23 32 31 24 31 -2 0 -14 -12 -28 -27z" />
    <path d="M3983 2693 c4 -3 10 -3 14 0 3 4 0 7 -7 7 -7 0 -10 -3 -7 -7z" />
    <path d="M2753 2683 c4 -3 10 -3 14 0 3 4 0 7 -7 7 -7 0 -10 -3 -7 -7z" />
    <path d="M3673 2683 c4 -3 10 -3 14 0 3 4 0 7 -7 7 -7 0 -10 -3 -7 -7z" />
    <path d="M815 2659 c-4 -6 -5 -12 -2 -15 2 -3 7 2 10 11 7 17 1 20 -8 4z" />
    <path d="M2014 2520 c0 -85 2 -120 3 -77 2 42 2 112 0 155 -1 42 -3 7 -3 -78z" />
    <path d="M2458 2663 c7 -3 16 -2 19 1 4 3 -2 6 -13 5 l-19 -1 13 -5z" />
    <path d="M2780 2663 c0 -5 7 -18 15 -29 l14 -19 1 13 c0 7 -7 20 -15 28 -8 9
-15 11 -15 7z" />
    <path d="M3294 2520 c0 -85 2 -120 3 -77 2 42 2 112 0 155 -1 42 -3 7 -3 -78z" />
    <path d="M3650 2660 c0 -7 3 -10 7 -7 3 4 3 10 0 14 -4 3 -7 0 -7 -7z" />
    <path d="M3973 2663 c4 -3 10 -3 14 0 3 4 0 7 -7 7 -7 0 -10 -3 -7 -7z" />
    <path d="M4026 2657 c3 -10 9 -15 12 -12 3 3 0 11 -7 18 l-12 12 7 -18z" />
    <path d="M1660 2650 c0 -7 3 -10 7 -7 3 4 3 10 0 14 -4 3 -7 0 -7 -7z" />
    <path d="M2400 2650 c0 -7 3 -10 7 -7 3 4 3 10 0 14 -4 3 -7 0 -7 -7z" />
    <path d="M3005 2530 c71 -71 132 -130 135 -130 2 0 -54 59 -125 130 -71 72
-132 130 -135 130 -2 0 54 -58 125 -130z" />
    <path d="M2430 2640 c0 -7 3 -10 7 -7 3 4 3 10 0 14 -4 3 -7 0 -7 -7z" />
    <path d="M2760 2640 c0 -7 3 -10 7 -7 3 4 3 10 0 14 -4 3 -7 0 -7 -7z" />
    <path d="M1025 2611 l-6 -20 -102 -4 -102 -3 102 -2 102 -2 11 21 c7 11 9 23
7 26 -3 2 -8 -5 -12 -16z" />
    <path d="M2390 2620 c0 -7 3 -10 7 -7 3 4 3 10 0 14 -4 3 -7 0 -7 -7z" />
    <path d="M800 2610 c0 -7 3 -10 7 -7 3 4 3 10 0 14 -4 3 -7 0 -7 -7z" />
    <path d="M1223 2603 c9 -2 25 -2 35 0 9 3 1 5 -18 5 -19 0 -27 -2 -17 -5z" />
    <path d="M1283 2593 c4 -3 10 -3 14 0 3 4 0 7 -7 7 -7 0 -10 -3 -7 -7z" />
    <path d="M1680 2580 c0 -7 3 -10 7 -7 3 4 3 10 0 14 -4 3 -7 0 -7 -7z" />
    <path d="M2501 2573 l-1 -23 98 2 97 2 -92 3 -92 4 -4 17 -5 17 -1 -22z" />
    <path d="M2880 2578 c0 -6 3 -8 7 -4 4 4 68 -53 143 -126 l135 -133 -135 138
c-74 75 -138 137 -142 137 -5 0 -8 -5 -8 -12z" />
    <path d="M3784 2445 c0 -82 2 -115 3 -72 2 43 2 110 0 150 -1 40 -3 5 -3 -78z" />
    <path d="M3934 2445 c0 -82 2 -115 3 -72 2 43 2 110 0 150 -1 40 -3 5 -3 -78z" />
    <path d="M1330 2550 c0 -7 3 -10 7 -7 3 4 3 10 0 14 -4 3 -7 0 -7 -7z" />
    <path d="M1130 2520 c0 -7 3 -10 7 -7 3 4 3 10 0 14 -4 3 -7 0 -7 -7z" />
    <path d="M1340 2520 c0 -7 3 -10 7 -7 3 4 3 10 0 14 -4 3 -7 0 -7 -7z" />
    <path d="M1472 2500 c0 -19 2 -27 5 -17 2 9 2 25 0 35 -3 9 -5 1 -5 -18z" />
    <path d="M1130 2480 c0 -7 3 -10 7 -7 3 4 3 10 0 14 -4 3 -7 0 -7 -7z" />
    <path d="M1340 2480 c0 -7 3 -10 7 -7 3 4 3 10 0 14 -4 3 -7 0 -7 -7z" />
    <path d="M1330 2450 c0 -7 3 -10 7 -7 3 4 3 10 0 14 -4 3 -7 0 -7 -7z" />
    <path d="M2503 2370 c0 -41 2 -58 4 -37 2 20 2 54 0 75 -2 20 -4 3 -4 -38z" />
    <path d="M1442 2388 c-12 -23 -21 -43 -19 -45 2 -1 14 15 26 38 13 22 21 42
19 44 -2 2 -13 -15 -26 -37z" />
    <path d="M917 2413 l102 -4 6 -20 c4 -11 9 -18 12 -16 2 3 0 15 -7 26 l-11 21
-102 -2 -102 -2 102 -3z" />
    <path d="M2080 2408 c0 -5 71 -7 158 -6 160 2 142 6 -51 10 -59 2 -107 0 -107
-4z" />
    <path d="M3425 2410 l-100 -6 103 -2 102 -2 0 10 c0 6 -1 9 -2 8 -2 -1 -48 -5
-103 -8z" />
    <path d="M1283 2403 c4 -3 10 -3 14 0 3 4 0 7 -7 7 -7 0 -10 -3 -7 -7z" />
    <path d="M800 2390 c0 -7 3 -10 7 -7 3 4 3 10 0 14 -4 3 -7 0 -7 -7z" />
    <path d="M1223 2393 c9 -2 25 -2 35 0 9 3 1 5 -18 5 -19 0 -27 -2 -17 -5z" />
    <path d="M1670 2380 c0 -7 3 -10 7 -7 3 4 3 10 0 14 -4 3 -7 0 -7 -7z" />
    <path d="M3210 2364 l0 -15 10 6 c6 4 8 11 5 16 -9 14 -15 11 -15 -7z" />
    <path d="M2352 2350 c0 -14 2 -19 5 -12 2 6 2 18 0 25 -3 6 -5 1 -5 -13z" />
    <path d="M3255 2360 c3 -5 8 -10 11 -10 3 0 2 5 -1 10 -3 6 -8 10 -11 10 -3 0
-2 -4 1 -10z" />
    <path d="M1065 2340 c10 -11 20 -20 23 -20 3 0 -3 9 -13 20 -10 11 -20 20 -23
20 -3 0 3 -9 13 -20z" />
    <path d="M1660 2350 c0 -7 3 -10 7 -7 3 4 3 10 0 14 -4 3 -7 0 -7 -7z" />
    <path d="M1986 2347 c3 -10 9 -15 12 -12 3 3 0 11 -7 18 l-12 12 7 -18z" />
    <path d="M820 2330 c6 -11 13 -20 16 -20 2 0 0 9 -6 20 -6 11 -13 20 -16 20
-2 0 0 -9 6 -20z" />
    <path d="M3606 2333 l-7 -18 12 12 c7 7 10 15 7 18 -3 3 -9 -2 -12 -12z" />
    <path d="M2030 2336 c0 -2 7 -7 16 -10 l15 -6 -6 10 c-6 10 -25 14 -25 6z" />
    <path d="M3190 2313 l-25 -26 21 11 c12 6 24 18 28 27 3 8 4 15 3 15 -1 0 -13
-12 -27 -27z" />
    <path d="M3240 2331 c0 -10 19 -25 25 -20 1 2 -3 10 -11 17 l-14 13 0 -10z" />
    <path d="M3555 2330 l-6 -10 15 6 c18 7 21 14 7 14 -6 0 -13 -4 -16 -10z" />
    <path d="M1383 2313 c4 -3 10 -3 14 0 3 4 0 7 -7 7 -7 0 -10 -3 -7 -7z" />
    <path d="M1636 2293 l-7 -18 12 12 c7 7 10 15 7 18 -3 3 -9 -2 -12 -12z" />
    <path d="M3135 2300 c3 -5 8 -10 11 -10 3 0 2 5 -1 10 -3 6 -8 10 -11 10 -3 0
-2 -4 1 -10z" />
    <path d="M3573 2303 c4 -3 10 -3 14 0 3 4 0 7 -7 7 -7 0 -10 -3 -7 -7z" />
    <path d="M4040 2300 c0 -7 3 -10 7 -7 3 4 3 10 0 14 -4 3 -7 0 -7 -7z" />
    <path d="M1111 2296 c2 -2 15 -9 29 -15 l25 -12 -19 15 c-11 9 -24 16 -30 16
-5 0 -7 -2 -5 -4z" />
    <path d="M1334 2284 l-19 -15 25 12 c31 14 36 19 24 19 -6 0 -19 -7 -30 -16z" />
    <path d="M3293 2293 c4 -3 10 -3 14 0 3 4 0 7 -7 7 -7 0 -10 -3 -7 -7z" />
    <path d="M850 2271 c0 -6 4 -13 10 -16 l10 -6 -6 15 c-7 18 -14 21 -14 7z" />
    <path d="M1223 2263 c9 -2 23 -2 30 0 6 3 -1 5 -18 5 l-30 0 18 -5z" />
    <path d="M1601 2237 l-13 -22 18 17 c10 10 16 20 13 22 -3 3 -11 -5 -18 -17z" />
    <path d="M875 2230 c3 -5 8 -10 11 -10 3 0 2 5 -1 10 -3 6 -8 10 -11 10 -3 0
-2 -4 1 -10z" />
    <path d="M1550 2185 l-12 -15 10 0 c12 0 26 19 19 26 -2 2 -10 -2 -17 -11z" />
    <path d="M980 2131 c14 -11 30 -21 35 -21 11 0 -7 14 -40 31 l-20 10 25 -20z" />
    <path d="M1465 2119 c-16 -10 -25 -19 -20 -19 6 0 24 9 40 20 17 11 26 20 20
19 -5 0 -23 -9 -40 -20z" />
    <path d="M1041 2096 c2 -2 15 -9 29 -15 l25 -12 -19 15 c-11 9 -24 16 -30 16
-5 0 -7 -2 -5 -4z" />
    <path d="M1404 2084 l-19 -15 23 11 c12 6 22 13 22 15 0 8 -5 6 -26 -11z" />
    <path d="M1123 2063 c4 -3 10 -3 14 0 3 4 0 7 -7 7 -7 0 -10 -3 -7 -7z" />
    <path d="M1343 2063 c4 -3 10 -3 14 0 3 4 0 7 -7 7 -7 0 -10 -3 -7 -7z" />
    <path d="M1163 2053 c4 -3 10 -3 14 0 3 4 0 7 -7 7 -7 0 -10 -3 -7 -7z" />
    <path d="M1303 2053 c4 -3 10 -3 14 0 3 4 0 7 -7 7 -7 0 -10 -3 -7 -7z" />
  </g>
  <g transform="translate(0.000000,500.000000) scale(0.100000,-0.100000)" fill="#8eda59" stroke="none">
    <path d="M1208 2943 c7 -3 16 -2 19 1 4 3 -2 6 -13 5 l-19 -1 13 -5z" />
    <path d="M1268 2943 c7 -3 16 -2 19 1 4 3 -2 6 -13 5 l-19 -1 13 -5z" />
    <path d="M949 2843 l-14 -18 18 14 c9 7 17 15 17 17 0 8 -8 3 -21 -13z" />
    <path d="M884 2778 l-7 -11 11 7 c7 4 12 9 12 12 0 8 -9 4 -16 -8z" />
    <path d="M1585 2780 c3 -5 8 -10 11 -10 3 0 2 5 -1 10 -3 6 -8 10 -11 10 -3 0
-2 -4 1 -10z" />
    <path d="M1203 2733 c4 -3 10 -3 14 0 3 4 0 7 -7 7 -7 0 -10 -3 -7 -7z" />
    <path d="M2084 2550 c0 -85 2 -120 3 -77 2 42 2 112 0 155 -1 42 -3 7 -3 -78z" />
    <path d="M2453 2693 c4 -3 10 -3 14 0 3 4 0 7 -7 7 -7 0 -10 -3 -7 -7z" />
    <path d="M3211 2523 l0 -178 9 20 c5 11 9 91 9 178 l1 157 -10 0 -10 0 1 -177z" />
    <path d="M3524 2550 c0 -85 2 -120 3 -77 2 42 2 112 0 155 -1 42 -3 7 -3 -78z" />
    <path d="M4015 2670 c3 -5 8 -10 11 -10 3 0 2 5 -1 10 -3 6 -8 10 -11 10 -3 0
-2 -4 1 -10z" />
    <path d="M2740 2666 c0 -2 8 -10 18 -17 l17 -14 -14 18 c-13 16 -21 21 -21 13z" />
    <path d="M1034 2628 l-7 -11 11 7 c7 4 12 9 12 12 0 8 -9 4 -16 -8z" />
    <path d="M2594 2623 l125 -4 4 -49 4 -50 -1 52 -1 53 -128 0 -127 1 124 -3z" />
    <path d="M3714 2617 c-2 -7 -3 -78 -1 -157 l3 -145 2 152 2 152 53 4 52 3 -53
2 -53 2 -5 -13z" />
    <path d="M3864 2617 c-2 -7 -3 -78 -1 -157 l3 -145 2 152 2 152 53 4 52 3 -53
2 -53 2 -5 -13z" />
    <path d="M2424 2470 c0 -85 2 -120 3 -77 2 42 2 112 0 155 -1 42 -3 7 -3 -78z" />
    <path d="M2774 2470 c0 -85 2 -120 3 -77 2 42 2 112 0 155 -1 42 -3 7 -3 -78z" />
    <path d="M4044 2455 c0 -88 2 -123 3 -77 2 46 2 118 0 160 -1 42 -3 5 -3 -83z" />
    <path d="M2884 2455 c0 -77 2 -107 3 -67 2 40 2 103 0 140 -2 37 -3 4 -3 -73z" />
    <path d="M1680 2550 c0 -7 3 -10 7 -7 3 4 3 10 0 14 -4 3 -7 0 -7 -7z" />
    <path d="M2595 2473 l124 -4 4 -72 3 -72 0 75 -1 75 -128 0 -127 1 125 -3z" />
    <path d="M3620 2370 c0 -7 3 -10 7 -7 3 4 3 10 0 14 -4 3 -7 0 -7 -7z" />
    <path d="M3579 2343 l-14 -18 18 14 c16 13 21 21 13 21 -2 0 -10 -8 -17 -17z" />
    <path d="M3235 2340 c3 -5 8 -10 11 -10 3 0 2 5 -1 10 -3 6 -8 10 -11 10 -3 0
-2 -4 1 -10z" />
    <path d="M2053 2323 c4 -3 10 -3 14 0 3 4 0 7 -7 7 -7 0 -10 -3 -7 -7z" />
    <path d="M3158 2323 c7 -3 16 -2 19 1 4 3 -2 6 -13 5 l-19 -1 13 -5z" />
    <path d="M3543 2323 c4 -3 10 -3 14 0 3 4 0 7 -7 7 -7 0 -10 -3 -7 -7z" />
    <path d="M3125 2310 c3 -5 8 -10 11 -10 3 0 2 5 -1 10 -3 6 -8 10 -11 10 -3 0
-2 -4 1 -10z" />
    <path d="M1105 2300 c3 -5 8 -10 11 -10 3 0 2 5 -1 10 -3 6 -8 10 -11 10 -3 0
-2 -4 1 -10z" />
    <path d="M880 2226 c0 -2 8 -10 18 -17 l17 -14 -14 18 c-13 16 -21 21 -21 13z" />
    <path d="M1579 2213 l-14 -18 18 14 c9 7 17 15 17 17 0 8 -8 3 -21 -13z" />
    <path d="M940 2166 c0 -2 8 -10 18 -17 l17 -14 -14 18 c-13 16 -21 21 -21 13z" />
    <path d="M1198 2053 c6 -2 18 -2 25 0 6 3 1 5 -13 5 -14 0 -19 -2 -12 -5z" />
    <path d="M1268 2053 c7 -3 16 -2 19 1 4 3 -2 6 -13 5 l-19 -1 13 -5z" />
  </g>
  <g transform="translate(0.000000,500.000000) scale(0.100000,-0.100000)" fill="#83d958" stroke="none">
    <path d="M1223 2943 c4 -3 10 -3 14 0 3 4 0 7 -7 7 -7 0 -10 -3 -7 -7z" />
    <path d="M1253 2943 c4 -3 10 -3 14 0 3 4 0 7 -7 7 -7 0 -10 -3 -7 -7z" />
    <path d="M1133 2933 c4 -3 10 -3 14 0 3 4 0 7 -7 7 -7 0 -10 -3 -7 -7z" />
    <path d="M1333 2933 c4 -3 10 -3 14 0 3 4 0 7 -7 7 -7 0 -10 -3 -7 -7z" />
    <path d="M984 2868 l-7 -11 11 7 c7 4 12 9 12 12 0 8 -9 4 -16 -8z" />
    <path d="M1525 2840 c10 -11 20 -20 23 -20 3 0 -3 9 -13 20 -10 11 -20 20 -23
20 -3 0 3 -9 13 -20z" />
    <path d="M914 2808 l-29 -33 33 29 c17 17 32 31 32 33 0 8 -8 1 -36 -29z" />
    <path d="M1575 2790 c3 -5 8 -10 11 -10 3 0 2 5 -1 10 -3 6 -8 10 -11 10 -3 0
-2 -4 1 -10z" />
    <path d="M1273 2733 c4 -3 10 -3 14 0 3 4 0 7 -7 7 -7 0 -10 -3 -7 -7z" />
    <path d="M1365 2700 c3 -5 8 -10 11 -10 3 0 2 5 -1 10 -3 6 -8 10 -11 10 -3 0
-2 -4 1 -10z" />
    <path d="M2985 2590 c60 -60 112 -110 115 -110 2 0 -45 50 -105 110 -60 61
-112 110 -115 110 -2 0 45 -49 105 -110z" />
    <path d="M3973 2693 c4 -3 10 -3 14 0 3 4 0 7 -7 7 -7 0 -10 -3 -7 -7z" />
    <path d="M2439 2653 l-14 -18 18 14 c16 13 21 21 13 21 -2 0 -10 -8 -17 -17z" />
    <path d="M2786 2647 c3 -10 9 -15 12 -12 3 3 0 11 -7 18 l-12 12 7 -18z" />
    <path d="M1435 2630 c3 -5 8 -10 11 -10 3 0 2 5 -1 10 -3 6 -8 10 -11 10 -3 0
-2 -4 1 -10z" />
    <path d="M4010 2620 c0 -7 3 -10 7 -7 3 4 3 10 0 14 -4 3 -7 0 -7 -7z" />
    <path d="M2911 2518 c3 -2 54 -50 114 -108 l110 -105 -105 108 c-57 59 -109
107 -114 107 -5 0 -7 -1 -5 -2z" />
    <path d="M1470 2450 c0 -7 3 -10 7 -7 3 4 3 10 0 14 -4 3 -7 0 -7 -7z" />
    <path d="M1680 2440 c0 -7 3 -10 7 -7 3 4 3 10 0 14 -4 3 -7 0 -7 -7z" />
    <path d="M1670 2390 c0 -7 3 -10 7 -7 3 4 3 10 0 14 -4 3 -7 0 -7 -7z" />
    <path d="M3250 2370 c0 -7 3 -10 7 -7 3 4 3 10 0 14 -4 3 -7 0 -7 -7z" />
    <path d="M1404 2328 l-19 -23 23 19 c21 18 27 26 19 26 -2 0 -12 -10 -23 -22z" />
    <path d="M2025 2340 c3 -5 8 -10 11 -10 3 0 2 5 -1 10 -3 6 -8 10 -11 10 -3 0
-2 -4 1 -10z" />
    <path d="M3176 2333 l-7 -18 12 12 c7 7 10 15 7 18 -3 3 -9 -2 -12 -12z" />
    <path d="M3265 2310 c3 -5 8 -10 11 -10 3 0 2 5 -1 10 -3 6 -8 10 -11 10 -3 0
-2 -4 1 -10z" />
    <path d="M1273 2263 c4 -3 10 -3 14 0 3 4 0 7 -7 7 -7 0 -10 -3 -7 -7z" />
    <path d="M920 2185 c13 -14 26 -25 28 -25 3 0 -5 11 -18 25 -13 14 -26 25 -28
25 -3 0 5 -11 18 -25z" />
    <path d="M1544 2178 l-29 -33 33 29 c30 28 37 36 29 36 -2 0 -16 -15 -33 -32z" />
    <path d="M985 2130 c3 -5 8 -10 11 -10 3 0 2 5 -1 10 -3 6 -8 10 -11 10 -3 0
-2 -4 1 -10z" />
    <path d="M1484 2128 l-7 -11 11 7 c12 7 16 16 8 16 -3 0 -8 -5 -12 -12z" />
    <path d="M1133 2063 c4 -3 10 -3 14 0 3 4 0 7 -7 7 -7 0 -10 -3 -7 -7z" />
    <path d="M1333 2063 c4 -3 10 -3 14 0 3 4 0 7 -7 7 -7 0 -10 -3 -7 -7z" />
    <path d="M1223 2053 c4 -3 10 -3 14 0 3 4 0 7 -7 7 -7 0 -10 -3 -7 -7z" />
    <path d="M1253 2053 c4 -3 10 -3 14 0 3 4 0 7 -7 7 -7 0 -10 -3 -7 -7z" />
  </g>
  <g transform="translate(0.000000,500.000000) scale(0.100000,-0.100000)" fill="#93db5a" stroke="none">
    <path d="M1485 2870 c3 -5 8 -10 11 -10 3 0 2 5 -1 10 -3 6 -8 10 -11 10 -3 0
-2 -4 1 -10z" />
    <path d="M1233 2603 c4 -3 10 -3 14 0 3 4 0 7 -7 7 -7 0 -10 -3 -7 -7z" />
    <path d="M1342 2500 c0 -14 2 -19 5 -12 2 6 2 18 0 25 -3 6 -5 1 -5 -13z" />
    <path d="M1233 2393 c4 -3 10 -3 14 0 3 4 0 7 -7 7 -7 0 -10 -3 -7 -7z" />
    <path d="M1183 2263 c4 -3 10 -3 14 0 3 4 0 7 -7 7 -7 0 -10 -3 -7 -7z" />
  </g>
  <g transform="translate(0.000000,500.000000) scale(0.100000,-0.100000)" fill="#80d957" stroke="none">
    <path d="M1545 2820 c3 -5 8 -10 11 -10 3 0 2 5 -1 10 -3 6 -8 10 -11 10 -3 0
-2 -4 1 -10z" />
    <path d="M1415 2660 c3 -5 8 -10 11 -10 3 0 2 5 -1 10 -3 6 -8 10 -11 10 -3 0
-2 -4 1 -10z" />
  </g>
  <g transform="translate(0.000000,500.000000) scale(0.100000,-0.100000)" fill="#000000" stroke="none" />
  <g transform="translate(0.000000,500.000000) scale(0.100000,-0.100000)" fill="#000000" stroke="none" />
  <g transform="translate(0.000000,500.000000) scale(0.100000,-0.100000)" fill="#000000" stroke="none" />
  <g transform="translate(0.000000,500.000000) scale(0.100000,-0.100000)" fill="#000000" stroke="none" />
  <g transform="translate(0.000000,500.000000) scale(0.100000,-0.100000)" fill="#000000" stroke="none" />
  <g transform="translate(0.000000,500.000000) scale(0.100000,-0.100000)" fill="#000000" stroke="none" />
  <g transform="translate(0.000000,500.000000) scale(0.100000,-0.100000)" fill="#000000" stroke="none" />
  <g transform="translate(0.000000,500.000000) scale(0.100000,-0.100000)" fill="#0000ff" stroke="none" />
  <g transform="translate(0.000000,500.000000) scale(0.100000,-0.100000)" fill="#00ffff" stroke="none" />
  <g transform="translate(0.000000,500.000000) scale(0.100000,-0.100000)" fill="#ff00ff" stroke="none" />
  <g transform="translate(0.000000,500.000000) scale(0.100000,-0.100000)" fill="#000000" stroke="none" />
  <g transform="translate(0.000000,500.000000) scale(0.100000,-0.100000)" fill="#ffff00" stroke="none" />
  <g transform="translate(0.000000,500.000000) scale(0.100000,-0.100000)" fill="#00ff00" stroke="none" />
  <g transform="translate(0.000000,500.000000) scale(0.100000,-0.100000)" fill="#ff0000" stroke="none" />
  <g transform="translate(0.000000,500.000000) scale(0.100000,-0.100000)" fill="#c0c0c0" stroke="none" />
  <g transform="translate(0.000000,500.000000) scale(0.100000,-0.100000)" fill="#ffffff" stroke="none" />
  <g transform="translate(0.000000,500.000000) scale(0.100000,-0.100000)" fill="#000000" stroke="none" />
</svg>